<svg xmlns="http://www.w3.org/2000/svg" viewBox="0 0 400 400" width="100%" height="100%">
  <style>
    .st0{fill:#4361EE;}
    .st1{fill:#3A0CA3;}
    .st2{fill:#4CC9F0;}
    .st3{fill:#F8F9FA;}
    .st4{fill:#2B2D42;}
    .st5{fill:#6C757D;}
  </style>
  <g>
    <!-- Background circle -->
    <circle class="st3" cx="200" cy="200" r="180" opacity="0.8"/>
    
    <!-- Head -->
    <circle class="st5" cx="200" cy="150" r="70"/>
    
    <!-- Body -->
    <path class="st4" d="M120,320 C120,250 280,250 280,320" />
    
    <!-- Suit -->
    <path class="st1" d="M140,320 C140,260 260,260 260,320" />
    
    <!-- Shirt -->
    <path class="st3" d="M170,320 C170,280 230,280 230,320" />
    
    <!-- Tie -->
    <path class="st0" d="M195,220 L205,220 L210,260 L200,270 L190,260 L195,220" />
    
    <!-- Face features (simplified) -->
    <circle class="st3" cx="180" cy="140" r="10" opacity="0.7"/>
    <circle class="st3" cx="220" cy="140" r="10" opacity="0.7"/>
    <path class="st3" d="M180,170 C180,180 220,180 220,170" fill="none" stroke="#F8F9FA" stroke-width="3"/>
    
    <!-- Professional elements -->
    <circle class="st2" cx="320" cy="100" r="30" opacity="0.6"/>
    <circle class="st0" cx="80" cy="100" r="30" opacity="0.6"/>
    
    <!-- Connection lines representing leadership -->
    <path class="st2" d="M280,150 C300,130 310,110 320,100" stroke-width="2" stroke="#4CC9F0" fill="none" opacity="0.6"/>
    <path class="st0" d="M120,150 C100,130 90,110 80,100" stroke-width="2" stroke="#4361EE" fill="none" opacity="0.6"/>
  </g>
</svg>