<svg xmlns="http://www.w3.org/2000/svg" viewBox="0 0 800 600" width="100%" height="100%">
  <style>
    .st0{fill:#4361EE;}
    .st1{fill:#3A0CA3;}
    .st2{fill:#4CC9F0;}
    .st3{fill:#F8F9FA;}
    .st4{fill:#2B2D42;}
  </style>
  <g>
    <!-- Background elements -->
    <circle class="st3" cx="400" cy="300" r="250" opacity="0.2"/>
    
    <!-- Vision board/screen -->
    <rect class="st4" x="250" y="150" width="300" height="200" rx="10"/>
    <rect class="st3" x="260" y="160" width="280" height="180" rx="5"/>
    
    <!-- Vision content -->
    <rect class="st0" x="280" y="180" width="120" height="15" rx="2"/>
    <rect class="st2" x="280" y="205" width="240" height="5" rx="2"/>
    <rect class="st2" x="280" y="220" width="200" height="5" rx="2"/>
    <rect class="st2" x="280" y="235" width="220" height="5" rx="2"/>
    
    <!-- Growth chart -->
    <path class="st0" d="M280,300 L520,300" stroke-width="2" stroke="#4361EE" fill="none"/>
    <path class="st0" d="M280,250 L280,300" stroke-width="2" stroke="#4361EE" fill="none"/>
    <path class="st0" d="M280,300 L310,280 L340,290 L370,260 L400,240 L430,220 L460,200 L490,180" 
          stroke-width="3" stroke="#4361EE" fill="none"/>
    <circle class="st0" cx="310" cy="280" r="4"/>
    <circle class="st0" cx="340" cy="290" r="4"/>
    <circle class="st0" cx="370" cy="260" r="4"/>
    <circle class="st0" cx="400" cy="240" r="4"/>
    <circle class="st0" cx="430" cy="220" r="4"/>
    <circle class="st0" cx="460" cy="200" r="4"/>
    <circle class="st0" cx="490" cy="180" r="4"/>
    
    <!-- Lightbulb (idea) -->
    <circle class="st2" cx="650" cy="150" r="40"/>
    <path class="st3" d="M650,130 Q650,110 635,120 Q620,130 635,140 Q650,150 665,140 Q680,130 665,120 Q650,110 650,130" 
          stroke-width="2" stroke="#F8F9FA" fill="none"/>
    <rect class="st3" x="645" y="150" width="10" height="20" rx="2"/>
    
    <!-- Gears (systems) -->
    <circle class="st1" cx="150" cy="250" r="50" opacity="0.8"/>
    <circle class="st3" cx="150" cy="250" r="20" opacity="0.8"/>
    <path class="st3" d="M150,200 L150,210 M150,290 L150,300 M100,250 L110,250 M190,250 L200,250 
                         M115,215 L125,225 M175,275 L185,285 M115,285 L125,275 M175,225 L185,215" 
          stroke-width="10" stroke="#F8F9FA" fill="none" opacity="0.8"/>
    
    <!-- Smaller gear -->
    <circle class="st0" cx="220" cy="180" r="30" opacity="0.8"/>
    <circle class="st3" cx="220" cy="180" r="12" opacity="0.8"/>
    <path class="st3" d="M220,150 L220,156 M220,204 L220,210 M190,180 L196,180 M244,180 L250,180 
                         M200,160 L206,166 M234,194 L240,200 M200,200 L206,194 M234,166 L240,160" 
          stroke-width="6" stroke="#F8F9FA" fill="none" opacity="0.8"/>
    
    <!-- Connection lines -->
    <path class="st2" d="M200,250 C230,270 260,290 290,310" stroke-width="2" stroke="#4CC9F0" fill="none" opacity="0.6"/>
    <path class="st2" d="M220,210 C240,230 260,250 280,270" stroke-width="2" stroke="#4CC9F0" fill="none" opacity="0.6"/>
    <path class="st0" d="M610,150 C580,180 550,200 520,220" stroke-width="2" stroke="#4361EE" fill="none" opacity="0.6"/>
    
    <!-- Base/Stand -->
    <path class="st4" d="M350,350 L450,350 L430,400 L370,400 Z"/>
    <rect class="st4" x="370" y="400" width="60" height="10" rx="2"/>
  </g>
</svg>